<?xml version="1.0" encoding="UTF-8" standalone="no"?>
<!DOCTYPE svg PUBLIC "-//W3C//DTD SVG 1.1//EN"
 "http://www.w3.org/Graphics/SVG/1.1/DTD/svg11.dtd">
<!-- Generated by graphviz version 2.40.1 (20161225.0304)
 -->
<!-- Title: DSA_ADT Pages: 1 -->
<svg width="808pt" height="388pt"
 viewBox="0.00 0.00 808.22 388.00" xmlns="http://www.w3.org/2000/svg" xmlns:xlink="http://www.w3.org/1999/xlink">
<g id="graph0" class="graph" transform="scale(1 1) rotate(0) translate(4 384)">
<title>DSA_ADT</title>
<polygon fill="#ffffff" stroke="transparent" points="-4,4 -4,-384 804.2173,-384 804.2173,4 -4,4"/>
<!-- DSAStack -->
<g id="node1" class="node">
<title>DSAStack</title>
<polygon fill="none" stroke="#000000" points="0,-215.5 0,-379.5 222.3906,-379.5 222.3906,-215.5 0,-215.5"/>
<text text-anchor="middle" x="111.1953" y="-364.3" font-family="Times,serif" font-size="14.00" fill="#000000">DSAStack</text>
<polyline fill="none" stroke="#000000" points="0,-357.5 222.3906,-357.5 "/>
<text text-anchor="start" x="8" y="-342.3" font-family="Times,serif" font-size="14.00" fill="#000000">&#45; stack: Array[Object]</text>
<text text-anchor="start" x="8" y="-328.3" font-family="Times,serif" font-size="14.00" fill="#000000">&#45; count: int</text>
<text text-anchor="middle" x="111.1953" y="-314.3" font-family="Times,serif" font-size="14.00" fill="#000000">&#45; DEFAULT_CAPACITY : int = 100</text>
<polyline fill="none" stroke="#000000" points="0,-307.5 222.3906,-307.5 "/>
<text text-anchor="start" x="8" y="-292.3" font-family="Times,serif" font-size="14.00" fill="#000000">+ push(item: Object) : None</text>
<text text-anchor="start" x="8" y="-278.3" font-family="Times,serif" font-size="14.00" fill="#000000">+ pop() : Object</text>
<text text-anchor="start" x="8" y="-264.3" font-family="Times,serif" font-size="14.00" fill="#000000">+ top() : Object</text>
<text text-anchor="start" x="8" y="-250.3" font-family="Times,serif" font-size="14.00" fill="#000000">+ isEmpty() : bool</text>
<text text-anchor="start" x="8" y="-236.3" font-family="Times,serif" font-size="14.00" fill="#000000">+ isFull() : bool</text>
<text text-anchor="start" x="8" y="-222.3" font-family="Times,serif" font-size="14.00" fill="#000000">+ count() : int</text>
</g>
<!-- DSAQueue -->
<g id="node2" class="node">
<title>DSAQueue</title>
<polygon fill="none" stroke="#000000" points="240.1128,-240.5 240.1128,-354.5 434.2778,-354.5 434.2778,-240.5 240.1128,-240.5"/>
<text text-anchor="start" x="304.9229" y="-340.3" font-family="Times,serif" font-style="italic" font-size="14.00" fill="#000000">DSAQueue</text>
<polyline fill="none" stroke="#000000" points="240.1128,-332.5 434.2778,-332.5 "/>
<text text-anchor="start" x="248.1128" y="-317.3" font-family="Times,serif" font-size="14.00" fill="#000000">+ enqueue(item: Object) : None</text>
<text text-anchor="start" x="248.1128" y="-303.3" font-family="Times,serif" font-size="14.00" fill="#000000">+ dequeue() : Object</text>
<text text-anchor="start" x="248.1128" y="-289.3" font-family="Times,serif" font-size="14.00" fill="#000000">+ peek() : Object</text>
<text text-anchor="start" x="248.1128" y="-275.3" font-family="Times,serif" font-size="14.00" fill="#000000">+ isEmpty() : bool</text>
<text text-anchor="start" x="248.1128" y="-261.3" font-family="Times,serif" font-size="14.00" fill="#000000">+ isFull() : bool</text>
<text text-anchor="start" x="248.1128" y="-247.3" font-family="Times,serif" font-size="14.00" fill="#000000">+ count() : int</text>
</g>
<!-- DSAShufflingQueue -->
<g id="node3" class="node">
<title>DSAShufflingQueue</title>
<polygon fill="none" stroke="#000000" points="106,-7.5 106,-171.5 328.3906,-171.5 328.3906,-7.5 106,-7.5"/>
<text text-anchor="middle" x="217.1953" y="-156.3" font-family="Times,serif" font-size="14.00" fill="#000000">DSAShufflingQueue</text>
<polyline fill="none" stroke="#000000" points="106,-149.5 328.3906,-149.5 "/>
<text text-anchor="start" x="114" y="-134.3" font-family="Times,serif" font-size="14.00" fill="#000000">&#45; queue: Array[Object]</text>
<text text-anchor="start" x="114" y="-120.3" font-family="Times,serif" font-size="14.00" fill="#000000">&#45; count: int</text>
<text text-anchor="middle" x="217.1953" y="-106.3" font-family="Times,serif" font-size="14.00" fill="#000000">&#45; DEFAULT_CAPACITY : int = 100</text>
<polyline fill="none" stroke="#000000" points="106,-99.5 328.3906,-99.5 "/>
<text text-anchor="start" x="114" y="-84.3" font-family="Times,serif" font-size="14.00" fill="#000000">^ + enqueue(item: Object) : None</text>
<text text-anchor="start" x="114" y="-70.3" font-family="Times,serif" font-size="14.00" fill="#000000">^ + dequeue() : Object</text>
<text text-anchor="start" x="114" y="-56.3" font-family="Times,serif" font-size="14.00" fill="#000000">^ + peek() : Object</text>
<text text-anchor="start" x="114" y="-42.3" font-family="Times,serif" font-size="14.00" fill="#000000">^ + isEmpty() : bool</text>
<text text-anchor="start" x="114" y="-28.3" font-family="Times,serif" font-size="14.00" fill="#000000">^ + isFull() : bool</text>
<text text-anchor="start" x="114" y="-14.3" font-family="Times,serif" font-size="14.00" fill="#000000">^ + count() : int</text>
</g>
<!-- DSAQueue&#45;&gt;DSAShufflingQueue -->
<g id="edge1" class="edge">
<title>DSAQueue&#45;&gt;DSAShufflingQueue</title>
<path fill="none" stroke="#000000" d="M304.2461,-240.388C293.5609,-221.867 281.4281,-200.8368 269.6852,-180.4824"/>
<polygon fill="none" stroke="#000000" points="272.7107,-178.7226 264.6817,-171.8098 266.6473,-182.2207 272.7107,-178.7226"/>
</g>
<!-- DSACircularQueue -->
<g id="node4" class="node">
<title>DSACircularQueue</title>
<polygon fill="none" stroke="#000000" points="346,-.5 346,-178.5 568.3906,-178.5 568.3906,-.5 346,-.5"/>
<text text-anchor="middle" x="457.1953" y="-163.3" font-family="Times,serif" font-size="14.00" fill="#000000">DSACircularQueue</text>
<polyline fill="none" stroke="#000000" points="346,-156.5 568.3906,-156.5 "/>
<text text-anchor="start" x="354" y="-141.3" font-family="Times,serif" font-size="14.00" fill="#000000">&#45; queue: Array[Object]</text>
<text text-anchor="start" x="354" y="-127.3" font-family="Times,serif" font-size="14.00" fill="#000000">&#45; count: int</text>
<text text-anchor="start" x="354" y="-113.3" font-family="Times,serif" font-size="14.00" fill="#000000">&#45; head: int</text>
<text text-anchor="middle" x="457.1953" y="-99.3" font-family="Times,serif" font-size="14.00" fill="#000000">&#45; DEFAULT_CAPACITY : int = 100</text>
<polyline fill="none" stroke="#000000" points="346,-92.5 568.3906,-92.5 "/>
<text text-anchor="start" x="354" y="-77.3" font-family="Times,serif" font-size="14.00" fill="#000000">^ + enqueue(item: Object) : None</text>
<text text-anchor="start" x="354" y="-63.3" font-family="Times,serif" font-size="14.00" fill="#000000">^ + dequeue() : Object</text>
<text text-anchor="start" x="354" y="-49.3" font-family="Times,serif" font-size="14.00" fill="#000000">^ + peek() : Object</text>
<text text-anchor="start" x="354" y="-35.3" font-family="Times,serif" font-size="14.00" fill="#000000">^ + isEmpty() : bool</text>
<text text-anchor="start" x="354" y="-21.3" font-family="Times,serif" font-size="14.00" fill="#000000">^ + isFull() : bool</text>
<text text-anchor="start" x="354" y="-7.3" font-family="Times,serif" font-size="14.00" fill="#000000">^ + count() : int</text>
</g>
<!-- DSAQueue&#45;&gt;DSACircularQueue -->
<g id="edge2" class="edge">
<title>DSAQueue&#45;&gt;DSACircularQueue</title>
<path fill="none" stroke="#000000" d="M370.1446,-240.388C379.6253,-223.9547 390.2456,-205.5461 400.7221,-187.3869"/>
<polygon fill="none" stroke="#000000" points="403.8823,-188.913 405.8479,-178.5021 397.819,-185.4149 403.8823,-188.913"/>
</g>
<!-- TestDSAADT -->
<g id="node5" class="node">
<title>TestDSAADT</title>
<polygon fill="none" stroke="#000000" points="586.1733,-53.5 586.1733,-125.5 800.2173,-125.5 800.2173,-53.5 586.1733,-53.5"/>
<text text-anchor="middle" x="693.1953" y="-110.3" font-family="Times,serif" font-size="14.00" fill="#000000">TestDSAADT</text>
<polyline fill="none" stroke="#000000" points="586.1733,-103.5 800.2173,-103.5 "/>
<text text-anchor="start" x="594.1733" y="-88.3" font-family="Times,serif" font-size="14.00" fill="#000000">+ testDSAStack() : None</text>
<text text-anchor="start" x="594.1733" y="-74.3" font-family="Times,serif" font-size="14.00" fill="#000000">+ testDSAShufflingQueue() : None</text>
<text text-anchor="start" x="594.1733" y="-60.3" font-family="Times,serif" font-size="14.00" fill="#000000">+ testDSACircularQueue() : None</text>
</g>
<!-- unittestTestCase -->
<g id="node6" class="node">
<title>unittestTestCase</title>
<polygon fill="none" stroke="#000000" points="637.665,-279.5 637.665,-315.5 748.7256,-315.5 748.7256,-279.5 637.665,-279.5"/>
<text text-anchor="middle" x="693.1953" y="-293.3" font-family="Times,serif" font-size="14.00" fill="#000000">unittest.TestCase</text>
</g>
<!-- unittestTestCase&#45;&gt;TestDSAADT -->
<g id="edge3" class="edge">
<title>unittestTestCase&#45;&gt;TestDSAADT</title>
<path fill="none" stroke="#000000" d="M693.1953,-279.4052C693.1953,-247.6786 693.1953,-181.0894 693.1953,-135.822"/>
<polygon fill="none" stroke="#000000" points="696.6954,-135.6584 693.1953,-125.6584 689.6954,-135.6585 696.6954,-135.6584"/>
</g>
</g>
</svg>
